# xmcd
#
# Track frame offsets:
#	150
#	13140
#	23669
#	32890
#	47341
#	56290
#	70018
#	85456
#	96902
#	109110
#	129427
#	147584
#	159077
#	171218
#	181949
#	196218
#	206125
#
# Disc length: 2930 seconds
#
# Revision: 1
# Processed by: cddbd v1.5.2PL0 Copyright (c) Steve Scherf et al.
# Submitted via: audiograbber 1.83.01
#
DISCID=e10b7011
DTITLE=Papa Legba´s Blues Lounge - Good Old Stuff
DYEAR=2008
DGENRE=Blues
TTITLE0=Drinking Wine (McGhee)
TTITLE1=Tina Nina Noo (Moore)
TTITLE2=I´m a Rattlesnakin´ Daddy (Allen)
TTITLE3=Tomorrow Night (Coslow/Grosz)
TTITLE4=Springtime Boogie (Lenz)
TTITLE5=Hey Joe (Roberts)
TTITLE6=If The Sea Was Whisky (Dixon)
TTITLE7=Wann Denn (Dixon/Lenz)
TTITLE8=Who Do You Love (Dunn)
TTITLE9=I Can´t Be Satisfied (Morganfield)
TTITLE10=How Long (Carr)
TTITLE11=Papa Legba´s Boogie (Heldmann/Lenz/Queißner)
TTITLE12=Peaches In The Springtime (Shade)
TTITLE13=Good Gravy (Williamson)
TTITLE14=Navaho Trail (Traditional)
TTITLE15=Stuff They Call Money (Conley)
TTITLE16=You Got To Move (McDowell)
EXTD=Jürgen Queißner - guitar, lead vocals\nReiner Lenz - bluesharp, b. vocals,
EXTD=lead vocals*, percussion\nThomas Heldmann - double bass, b. vocals\nAufge
EXTD=nomme von Klaus Endel,\nSound and More Tonstudio, Darmstadt, 28.Juni 2008\nK
EXTD=ontakt:\nJürgen Queißner\nBachgasse 13a\n64372 Ober-Ramstadt\n06154/5524\n
EXTD=papalegbasblueslounge@web.de\nwww.myspace.com/papalegbasblueslounge
EXTT0=
EXTT1=
EXTT2=
EXTT3=
EXTT4=
EXTT5=
EXTT6=
EXTT7=
EXTT8=
EXTT9=
EXTT10=
EXTT11=
EXTT12=
EXTT13=
EXTT14=
EXTT15=
EXTT16=
PLAYORDER=
